<svg xmlns="http://www.w3.org/2000/svg" viewBox="0 0 32 32">
  <rect width="32" height="32" fill="#17181a"/>
  <path d="M5.092 28.18L5.092 26.093L8.249 26.093Q9.827 26.093 10.705 25.227Q11.583 24.362 11.583 22.809L11.583 11.685L4.965 11.685L4.965 9.598L13.874 9.598L13.874 22.809Q13.874 25.278 12.347 26.729Q10.82 28.18 8.249 28.18L5.092 28.18L5.092 28.18ZM12.474 7.078Q11.634 7.078 11.151 6.645Q10.667 6.213 10.667 5.474Q10.667 4.711 11.151 4.265Q11.634 3.82 12.474 3.82Q13.314 3.82 13.798 4.265Q14.282 4.711 14.282 5.474Q14.282 6.213 13.798 6.645Q13.314 7.078 12.474 7.078L12.474 7.078Z" fill="#f2f3f2"/>
  <circle cx="24.947" cy="21.511" r="2.087" fill="#f2f3f2"/>
</svg>
